# xmcd
#
# Track frame offsets:
#	150
#	77775
#	138092
#	235263
#
# Disc length: 4105 seconds
#
# Revision: 0
# Processed by: cddbd v1.5.2PL0 Copyright (c) Steve Scherf et al.
# Submitted via: audiograbber 1.83.01
#
DISCID=28100704
DTITLE=Flatoroler - What!
DYEAR=2016
DGENRE=Electronic
TTITLE0=Okklusion
TTITLE1=Lapsang souchong
TTITLE2=Scoville
TTITLE3=Llanfairpwllgwyngyllgogerychwyrndrobwllllantysiliogogogoch
EXTD=
EXTT0=
EXTT1=
EXTT2=
EXTT3=
PLAYORDER=
